<svg version="1.1" xmlns="http://www.w3.org/2000/svg" xmlns:xlink="http://www.w3.org/1999/xlink" width="1499.85075" height="359.60242" viewBox="0,0,1499.85075,359.60242"><g transform="translate(509.92538,-0.19879)"><g data-paper-data="{&quot;isPaintingLayer&quot;:true}" fill-rule="nonzero" stroke-linejoin="miter" stroke-miterlimit="10" stroke-dasharray="" stroke-dashoffset="0" style="mix-blend-mode: normal"><path d="M-149.70702,118.13587l-2.93333,0.23333" fill="none" stroke="none" stroke-width="0" stroke-linecap="round"/><path d="M-152.77193,119.24583l2,0.07931" fill="none" stroke="#ffffff" stroke-width="0.5" stroke-linecap="round"/><g><path d="M919.52394,122.16968l-2.73913,0.17391" fill="#ffffff" stroke="#ffffff" stroke-width="0.5" stroke-linecap="round"/><path d="M820.99833,118.78361l2.93333,-0.23333" fill="none" stroke="none" stroke-width="0" stroke-linecap="round"/><path d="M822.86675,119.73955l-2,-0.07931" fill="none" stroke="#ffffff" stroke-width="0.5" stroke-linecap="round"/><path d="M-509.92537,359.80121v-359.60242h1499.85075v359.60242z" fill="#7bdfff" stroke="none" stroke-width="0" stroke-linecap="butt"/><path d="M355.12943,108.08335c0,-17.39697 11.10303,-27.25 28.5,-27.25c8.52627,0 16.73805,3.10076 22.47069,8.48088c5.96422,5.59746 9.27931,13.64842 9.27931,22.51912c0,3.80385 -0.92523,6.90875 -2.55293,8.00602c-4.20103,2.83201 -14.04883,-9.0307 -23.89986,-11.85789c-3.78845,-1.08727 -6.52164,4.85187 -10.29721,4.85187c-17.39697,0 -23.5,12.64697 -23.5,-4.75z" fill="#ffffff" stroke="#000000" stroke-width="1.5" stroke-linecap="butt"/><path d="M296.29607,99.30557c0,-17.39697 14.10303,-31.5 31.5,-31.5c17.39697,0 31.5,14.10303 31.5,31.5c0,17.39697 -14.35303,17.75 -31.75,17.75c-17.39697,0 -31.25,-0.35303 -31.25,-17.75z" fill="#ffffff" stroke="#000000" stroke-width="1.5" stroke-linecap="butt"/><path d="M234.37942,109.33335c0,-19.09985 14.73348,-34.58334 33.83333,-34.58334c19.09985,0 32.08334,13.23349 32.08334,32.33334c0,19.09985 -22.40015,-2.50001 -41.5,-2.50001c-5.62375,0 -6.46203,-1.01262 -9.90187,0.17661c-2.70444,0.93499 -8.46868,15.17354 -10.06649,15.42424c-3.27212,0.51342 -4.4483,-1.79622 -4.4483,-10.85085z" fill="#ffffff" stroke="#000000" stroke-width="1.5" stroke-linecap="butt"/><path d="M411.91666,120.30954h-174" fill="none" stroke="#000000" stroke-width="1.5" stroke-linecap="round"/><path d="M299.23076,91.99984h-4.92308" fill="none" stroke="#ffffff" stroke-width="0.5" stroke-linecap="round"/><path d="M357.27733,93.32682h3" fill="none" stroke="#ffffff" stroke-width="0.5" stroke-linecap="round"/><path d="M411.94564,119.16668l-2.73913,0.17391" fill="#ffffff" stroke="#ffffff" stroke-width="0.5" stroke-linecap="round"/><path d="M238.91667,119.58334v-22c0,0 34.91957,-5.55 57.80833,-5.55c14.36834,0 39.33831,0.12135 62.23955,1.31678c27.45135,1.43294 51.95211,4.23322 51.95211,4.23322v22z" fill="#ffffff" stroke="none" stroke-width="0" stroke-linecap="butt"/><path d="M690.55309,118.13587l-2.93333,0.23333" fill="none" stroke="none" stroke-width="0" stroke-linecap="round"/><path d="M687.48818,119.24583l2,0.07931" fill="none" stroke="#ffffff" stroke-width="0.5" stroke-linecap="round"/><path d="M850.69572,108.08335c0,-17.39697 11.10303,-27.25 28.5,-27.25c8.52627,0 16.73805,3.10076 22.47069,8.48088c5.96422,5.59746 9.27931,13.64842 9.27931,22.51912c0,3.80385 -0.92523,6.90875 -2.55293,8.00602c-4.20103,2.83201 -14.04883,-9.0307 -23.89986,-11.85789c-3.78845,-1.08727 -6.52164,4.85187 -10.29721,4.85187c-17.39697,0 -23.5,12.64697 -23.5,-4.75z" fill="#ffffff" stroke="#000000" stroke-width="1.5" stroke-linecap="butt"/><path d="M791.86238,99.30557c0,-17.39697 14.10303,-31.5 31.5,-31.5c17.39697,0 31.5,14.10303 31.5,31.5c0,17.39697 -14.35303,17.75 -31.75,17.75c-17.39697,0 -31.25,-0.35303 -31.25,-17.75z" fill="#ffffff" stroke="#000000" stroke-width="1.5" stroke-linecap="butt"/><path d="M729.94569,109.33335c0,-19.09985 14.73348,-34.58334 33.83333,-34.58334c19.09985,0 32.08334,13.23349 32.08334,32.33334c0,19.09985 -22.40015,-2.50001 -41.5,-2.50001c-5.62375,0 -6.46203,-1.01262 -9.90187,0.17661c-2.70444,0.93499 -8.46868,15.17354 -10.06649,15.42424c-3.27212,0.51342 -4.4483,-1.79622 -4.4483,-10.85085z" fill="#ffffff" stroke="#000000" stroke-width="1.5" stroke-linecap="butt"/><path d="M907.48294,120.30954h-174" fill="none" stroke="#000000" stroke-width="1.5" stroke-linecap="round"/><path d="M794.79705,91.99984h-4.92308" fill="none" stroke="#ffffff" stroke-width="0.5" stroke-linecap="round"/><path d="M852.84361,93.32682h3" fill="none" stroke="#ffffff" stroke-width="0.5" stroke-linecap="round"/><path d="M734.48295,119.58334v-22c0,0 34.91957,-5.55 57.80833,-5.55c14.36834,0 39.33831,0.12135 62.23955,1.31678c27.45135,1.43294 51.95211,4.23322 51.95211,4.23322v22z" fill="#ffffff" stroke="none" stroke-width="0" stroke-linecap="butt"/></g></g></g></svg>