<svg version="1.1" xmlns="http://www.w3.org/2000/svg" xmlns:xlink="http://www.w3.org/1999/xlink" width="182.50001" height="54.00397" viewBox="0,0,182.50001,54.00397"><g transform="translate(-148.87942,-153.05555)"><g data-paper-data="{&quot;isPaintingLayer&quot;:true}" fill-rule="nonzero" stroke-linejoin="miter" stroke-miterlimit="10" stroke-dasharray="" stroke-dashoffset="0" style="mix-blend-mode: normal"><path d="M270.37943,194.08334c0,-17.39697 11.10303,-27.25 28.5,-27.25c8.52627,0 16.73805,3.10076 22.47069,8.48088c5.96422,5.59746 9.27931,13.64842 9.27931,22.51912c0,3.80385 -0.92523,6.90875 -2.55293,8.00602c-4.20103,2.83201 -14.04883,-9.0307 -23.89986,-11.85789c-3.78845,-1.08727 -6.52164,4.85187 -10.29721,4.85187c-17.39697,0 -23.5,12.64697 -23.5,-4.75z" fill="#ffffff" stroke="#000000" stroke-width="1.5" stroke-linecap="butt"/><path d="M211.54609,185.30556c0,-17.39697 14.10303,-31.5 31.5,-31.5c17.39697,0 31.5,14.10303 31.5,31.5c0,17.39697 -14.35303,17.75 -31.75,17.75c-17.39697,0 -31.25,-0.35303 -31.25,-17.75z" fill="#ffffff" stroke="#000000" stroke-width="1.5" stroke-linecap="butt"/><path d="M149.62942,195.33334c0,-19.09985 14.73348,-34.58334 33.83333,-34.58334c19.09985,0 32.08334,13.23349 32.08334,32.33334c0,19.09985 -22.40015,-2.50001 -41.5,-2.50001c-5.62375,0 -6.46203,-1.01262 -9.90187,0.17661c-2.70444,0.93499 -8.46868,15.17354 -10.06649,15.42424c-3.27212,0.51342 -4.4483,-1.79622 -4.4483,-10.85085z" fill="#ffffff" stroke="#000000" stroke-width="1.5" stroke-linecap="butt"/><path d="M327.16667,206.30953h-174" fill="none" stroke="#000000" stroke-width="1.5" stroke-linecap="round"/><path d="M153.75,204.36919l2.93333,-0.23333" fill="none" stroke="none" stroke-width="0" stroke-linecap="round"/><path d="M155.61842,205.32513l-2,-0.07931" fill="none" stroke="#ffffff" stroke-width="0.5" stroke-linecap="round"/><path d="M214.48077,177.99983h-4.92308" fill="none" stroke="#ffffff" stroke-width="0.5" stroke-linecap="round"/><path d="M275.52733,179.32681h-3" fill="none" stroke="#ffffff" stroke-width="0.5" stroke-linecap="round"/><path d="M327.19565,205.16667l-2.73913,0.17391" fill="#ffffff" stroke="#ffffff" stroke-width="0.5" stroke-linecap="round"/><path d="M154.16667,205.58333v-22c0,0 34.91957,-5.55 57.80833,-5.55c14.36834,0 39.33831,0.12135 62.23955,1.31678c27.45135,1.43294 51.95211,4.23322 51.95211,4.23322v22z" fill="#ffffff" stroke="none" stroke-width="0" stroke-linecap="butt"/></g></g></svg>