<svg version="1.1" xmlns="http://www.w3.org/2000/svg" xmlns:xlink="http://www.w3.org/1999/xlink" width="886" height="886" viewBox="0,0,886,886"><g transform="translate(173,100)"><g data-paper-data="{&quot;isPaintingLayer&quot;:true}" fill-rule="nonzero" stroke-linecap="butt" stroke-linejoin="miter" stroke-miterlimit="10" stroke-dasharray="" stroke-dashoffset="0" style="mix-blend-mode: normal"><g stroke="none"><path d="M213.22199,322.05883v-255h53.16382v255z" fill="#6cff66" stroke-width="NaN"/><g><path d="M221.75752,322.05883v-255h7.14218v255z" fill="#8fff8c" stroke-width="NaN"/><path d="M213.22199,322.05883v-255h9.66052v255z" fill="#abffa8" stroke-width="NaN"/><path d="M230.01437,322.05883v-255h1.6204v255z" fill="#8fff8c" stroke-width="NaN"/><path d="M213.22199,322.05883v-255h2.6938v255z" fill="#bfffbd" stroke-width="NaN"/></g><g data-paper-data="{&quot;index&quot;:null}"><path d="M251.1003,322.05883v-255h7.14218v255z" fill="#61e65c" stroke-width="NaN"/><path d="M257.11749,322.05883v-255h9.66052v255z" fill="#58d154" stroke-width="NaN"/><path d="M248.36523,322.05883v-255h1.6204v255z" fill="#61e65c" stroke-width="NaN"/><path d="M264.08421,322.05883v-255h2.6938v255z" fill="#54c950" stroke-width="NaN"/></g></g><path d="M213.2994,322.49999v-265.58823h52.68463v265.58823z" fill="none" stroke="#02070e" stroke-width="2.5"/><path d="M212.21569,69.26471v-31.7647h55.16169v31.7647z" fill="#6cff66" stroke="none" stroke-width="0"/><g stroke="none"><path d="M221.07197,69.26471v-31.7647h7.41058v31.7647z" fill="#8fff8c" stroke-width="NaN"/><path d="M212.21569,69.26471v-31.7647h10.02355v31.7647z" fill="#abffa8" stroke-width="NaN"/><path d="M229.63911,69.26471v-31.7647h1.6813v31.7647z" fill="#8fff8c" stroke-width="NaN"/><path d="M212.21569,69.26471v-31.7647h2.79503v31.7647z" fill="#bfffbd" stroke-width="NaN"/></g><g data-paper-data="{&quot;index&quot;:null}" stroke="none"><path d="M251.51745,69.26471v-31.7647h7.41058v31.7647z" fill="#61e65c" stroke-width="NaN"/><path d="M257.76076,69.26471v-31.7647h10.02355v31.7647z" fill="#58d154" stroke-width="NaN"/><path d="M248.67959,69.26471v-31.7647h1.6813v31.7647z" fill="#61e65c" stroke-width="NaN"/><path d="M264.98928,69.26471v-31.7647h2.79503v31.7647z" fill="#54c950" stroke-width="NaN"/></g><path d="M212.21569,69.26471v-31.7647h55.16169v31.7647z" fill="none" stroke="#02070e" stroke-width="2.5"/><path d="M-173,786v-886h886v886z" fill="#9966ff" stroke="none" stroke-width="none"/></g></g></svg>